<?xml version="1.0" standalone="no"?>
<!DOCTYPE svg PUBLIC "-//W3C//DTD SVG 1.1//EN" "http://www.w3.org/Graphics/SVG/1.1/DTD/svg11.dtd"><svg t="1724857981070"
	class="icon" viewBox="0 0 860 1000" version="1.1" xmlns="http://www.w3.org/2000/svg" p-id="5208"
	xmlns:xlink="http://www.w3.org/1999/xlink" width="200" height="100">
	<path
		d="M64 213.333333a85.333333 85.333333 0 0 1 85.333333-85.333333h725.333334a85.333333 85.333333 0 0 1 85.333333 85.333333v597.333334a85.333333 85.333333 0 0 1-85.333333 85.333333h-725.333334a85.333333 85.333333 0 0 1-85.333333-85.333333V213.333333z m85.333333 529.664V810.666667h725.333334v-64.256l-313.856-240-101.76 118.698666a42.666667 42.666667 0 0 1-59.050667 5.546667l-76.8-61.482667L149.333333 742.997333z m725.333334-104.021333V213.333333h-725.333334v409.002667l140.501334-140.501333a42.666667 42.666667 0 0 1 56.832-3.157334l74.453333 59.562667 101.12-118.016a42.666667 42.666667 0 0 1 58.325333-6.101333l294.101334 224.853333zM234.666667 352a74.666667 74.666667 0 1 1 149.333333 0 74.666667 74.666667 0 0 1-149.333333 0z"
		fill="#5deded" p-id="5209"></path>
</svg>